# File created by Blade
# Date/Time:  Thu Jan 22 19:13:14 2015
# Frame Rate: 120.000 fps
#------------------------------------------------------
:FULLY-SPECIFIED
:DEGREES
1925
root 3.625709 26.462847 -5.931472 25.414401 -32.908161 31.940110
RightUpLeg -106.248512 -39.944536 -5.686546
RightLeg 70.219030 -0.000000 -0.000000
RightFoot -16.300303 -7.789398 8.539180
RightToeBase 2.712075 -0.000000 -0.000000
LeftUpLeg -30.048560 19.197626 -6.257377
LeftLeg 9.071093 -0.000000 -0.000000
LeftFoot -11.996374 3.722905 -38.434484
LeftToeBase 6.284735 -0.000000 -0.000000
Spine 12.073276 13.083531 21.933183
RightShoulder -9.649241 -4.119256 -18.608847
RightArm 20.066911 26.456835 59.086132
RightForeArm 22.793317 -0.000000 17.581007
RightHand 18.549288 -0.000000 4.444395
RightHandThumb1 -24.326973 -0.000000 -32.862282
LeftShoulder -26.183706 4.773912 32.820222
LeftArm -5.832833 -35.812291 -23.135541
LeftForeArm -6.673669 -0.000000 1.840498
LeftHand 0.020977 -0.000000 -0.829106
LeftHandThumb1 -26.253704 0.000000 33.147579
Head -27.997562 11.533743 -6.051326
1926
root 3.709055 26.529349 -5.931990 25.523605 -32.799003 31.642775
RightUpLeg -105.697798 -39.942017 -5.745148
RightLeg 69.577156 -0.000000 -0.000000
RightFoot -16.006195 -7.649854 8.554458
RightToeBase 2.731244 -0.000000 -0.000000
LeftUpLeg -30.093929 18.988088 -6.079949
LeftLeg 9.128925 -0.000000 -0.000000
LeftFoot -12.223467 3.769849 -37.970269
LeftToeBase 6.025652 -0.000000 -0.000000
Spine 11.849824 12.974469 21.782419
RightShoulder -9.832073 -4.477338 -18.447995
RightArm 19.788256 26.283821 59.062966
RightForeArm 22.808746 -0.000000 18.036381
RightHand 18.569046 -0.000000 4.365691
RightHandThumb1 -24.326973 -0.000000 -32.862282
LeftShoulder -26.154568 4.811702 32.763546
LeftArm -5.826803 -35.763830 -23.126677
LeftForeArm -6.807677 -0.000000 1.786240
LeftHand 0.027522 -0.000000 -0.739455
LeftHandThumb1 -26.253704 0.000000 33.147579
Head -27.891055 11.454167 -6.100555
1927
root 3.789452 26.594165 -5.929412 25.578801 -32.675237 31.372767
RightUpLeg -105.005800 -39.954924 -5.961644
RightLeg 68.936999 -0.000000 -0.000000
RightFoot -15.808509 -7.396043 8.645772
RightToeBase 3.256913 -0.000000 -0.000000
LeftUpLeg -30.103747 18.742764 -5.889374
LeftLeg 9.219524 -0.000000 -0.000000
LeftFoot -12.464537 3.788598 -37.574269
LeftToeBase 5.721499 -0.000000 -0.000000
Spine 11.648929 12.833182 21.621144
RightShoulder -10.046078 -4.890198 -18.230109
RightArm 19.648625 26.403668 59.154057
RightForeArm 22.613854 -0.000000 18.421266
RightHand 18.688911 -0.000000 4.462213
RightHandThumb1 -24.326973 -0.000000 -32.862282
LeftShoulder -26.123018 4.858806 32.724011
LeftArm -5.852725 -35.758280 -23.126237
LeftForeArm -6.815727 -0.000000 1.828828
LeftHand -0.115389 0.000000 -0.755342
LeftHandThumb1 -26.253704 0.000000 33.147579
Head -27.835076 11.276019 -6.194425
1928
root 3.874500 26.656983 -5.918736 25.583372 -32.472260 31.173906
RightUpLeg -104.364612 -40.086769 -6.154521
RightLeg 68.359858 -0.000000 -0.000000
RightFoot -15.584168 -7.120565 8.700446
RightToeBase 3.419229 -0.000000 -0.000000
LeftUpLeg -30.113447 18.461312 -5.767691
LeftLeg 9.311797 -0.000000 -0.000000
LeftFoot -12.670003 3.823992 -37.210409
LeftToeBase 5.664011 -0.000000 -0.000000
Spine 11.371145 12.641427 21.438181
RightShoulder -10.307643 -5.458898 -17.946121
RightArm 19.654939 26.559294 59.205424
RightForeArm 22.479128 -0.000000 18.645534
RightHand 18.769837 -0.000000 4.458644
RightHandThumb1 -24.326973 -0.000000 -32.862282
LeftShoulder -26.024223 4.877379 32.766185
LeftArm -5.926372 -35.726594 -23.163207
LeftForeArm -6.876141 -0.000000 1.931680
LeftHand -0.210174 0.000000 -0.673733
LeftHandThumb1 -26.253704 0.000000 33.147579
Head -27.680800 11.121033 -6.285504
1929
root 3.950448 26.718348 -5.912378 25.575259 -32.311260 30.919774
RightUpLeg -103.611035 -40.105971 -6.445738
RightLeg 67.763435 -0.000000 -0.000000
RightFoot -15.363860 -7.001563 8.831185
RightToeBase 3.414248 -0.000000 -0.000000
LeftUpLeg -30.106741 18.323728 -5.618391
LeftLeg 9.437779 -0.000000 -0.000000
LeftFoot -12.779832 3.818883 -36.914128
LeftToeBase 5.508086 -0.000000 -0.000000
Spine 11.202283 12.462286 21.275101
RightShoulder -10.562225 -5.829904 -17.699142
RightArm 19.521332 26.635180 59.214303
RightForeArm 22.508937 -0.000000 18.810625
RightHand 18.775626 -0.000000 4.309054
RightHandThumb1 -24.326973 -0.000000 -32.862282
LeftShoulder -25.998761 4.947026 32.746756
LeftArm -5.945990 -35.798636 -23.202276
LeftForeArm -6.901802 -0.000000 2.048844
LeftHand -0.241050 -0.000000 -0.689864
LeftHandThumb1 -26.253704 0.000000 33.147579
Head -27.654648 10.928832 -6.361429
1930
root 4.022286 26.777408 -5.901851 25.538464 -32.081813 30.659362
RightUpLeg -102.792454 -40.180127 -6.755195
RightLeg 67.197779 -0.000000 -0.000000
RightFoot -15.165531 -6.935693 8.914916
RightToeBase 3.243471 -0.000000 -0.000000
LeftUpLeg -30.078144 18.181646 -5.444077
LeftLeg 9.567768 -0.000000 -0.000000
LeftFoot -12.862314 3.788285 -36.706367
LeftToeBase 5.385778 -0.000000 -0.000000
Spine 11.003025 12.255872 21.171434
RightShoulder -10.834146 -6.191126 -17.460412
RightArm 19.371932 26.968350 59.312114
RightForeArm 22.220384 -0.000000 18.941368
RightHand 18.859280 -0.000000 4.308232
RightHandThumb1 -24.326973 -0.000000 -32.862282
LeftShoulder -25.907574 5.023634 32.732662
LeftArm -5.972330 -35.884880 -23.287941
LeftForeArm -6.986864 -0.000000 2.212652
LeftHand -0.209900 -0.000000 -0.388535
LeftHandThumb1 -26.253704 0.000000 33.147579
Head -27.526174 10.721214 -6.444977
1931
root 4.085325 26.833824 -5.890206 25.460144 -31.822834 30.400471
RightUpLeg -101.912785 -40.247029 -7.103650
RightLeg 66.664991 -0.000000 -0.000000
RightFoot -15.001911 -6.903796 9.210291
RightToeBase 3.171832 -0.000000 -0.000000
LeftUpLeg -30.027043 18.157096 -5.301227
LeftLeg 9.698927 -0.000000 -0.000000
LeftFoot -12.830643 3.662284 -36.383465
LeftToeBase 5.185158 -0.000000 -0.000000
Spine 10.907564 12.013448 21.048622
RightShoulder -11.228047 -6.494311 -17.155990
RightArm 19.284325 27.085222 59.327178
RightForeArm 22.187013 -0.000000 18.984428
RightHand 18.811899 0.000000 4.099111
RightHandThumb1 -24.326973 -0.000000 -32.862282
LeftShoulder -26.138379 5.197807 32.660952
LeftArm -5.473775 -36.060868 -23.633637
LeftForeArm -7.007181 -0.000000 2.254645
LeftHand -0.210179 -0.000000 -0.433767
LeftHandThumb1 -26.253704 0.000000 33.147579
Head -27.624533 10.458849 -6.471841
